<svg xmlns="http://www.w3.org/2000/svg" xmlns:xlink="http://www.w3.org/1999/xlink" viewBox="0 0 50 50" version="1.1">
    <path fill="#333" d="M 25 0 C 21.296875 0 18.582031 0.976563 16.625 2.5 C 14.667969 4.023438 13.496094 6.035156 12.65625 8.03125 C 11.816406 10.027344 11.289063 12.046875 10.6875 13.5625 C 10.085938 15.078125 9.457031 15.957031 8.625 16.25 C 3.441406 18.085938 0 22.445313 0 28.34375 C 0 28.871094 0.410156 29.3125 0.9375 29.34375 C 3.597656 29.484375 5.070313 30.121094 5.9375 30.90625 C 6.804688 31.691406 7.179688 32.695313 7.375 33.875 C 7.570313 35.054688 7.5625 36.339844 7.78125 37.5625 C 7.890625 38.171875 8.050781 38.789063 8.40625 39.34375 C 8.761719 39.898438 9.324219 40.359375 10.03125 40.59375 C 12.132813 41.292969 13.59375 41.742188 14.59375 42.3125 C 15.585938 42.878906 16.222656 43.558594 16.9375 45.0625 C 16.941406 45.070313 16.933594 45.085938 16.9375 45.09375 C 17.53125 46.351563 18.347656 47.632813 19.65625 48.5625 C 20.972656 49.496094 22.769531 50.03125 25.1875 50 C 29.117188 49.949219 31.136719 48.121094 32.34375 46.34375 C 32.945313 45.457031 33.40625 44.597656 33.875 43.96875 C 34.34375 43.339844 34.765625 42.953125 35.4375 42.75 C 37.996094 41.980469 39.5 40.683594 40.34375 39.25 C 41.1875 37.816406 41.390625 36.332031 41.6875 35.15625 C 41.984375 33.980469 42.300781 33.1875 43.1875 32.59375 C 44.074219 32 45.769531 31.582031 48.9375 31.75 C 49.214844 31.765625 49.484375 31.667969 49.683594 31.480469 C 49.886719 31.289063 50 31.027344 50 30.75 C 50 27.992188 50.027344 24.9375 48.90625 22.21875 C 47.785156 19.5 45.382813 17.199219 41.0625 16.21875 C 40.75 16.148438 40.492188 15.984375 40.1875 15.59375 C 39.882813 15.203125 39.578125 14.617188 39.28125 13.875 C 38.6875 12.390625 38.148438 10.351563 37.28125 8.3125 C 36.414063 6.273438 35.199219 4.175781 33.25 2.59375 C 31.300781 1.011719 28.625 0 25 0 Z M 25 2 C 28.257813 2 30.410156 2.863281 32 4.15625 C 33.589844 5.449219 34.636719 7.214844 35.4375 9.09375 C 36.238281 10.972656 36.777344 12.941406 37.4375 14.59375 C 37.769531 15.421875 38.128906 16.175781 38.625 16.8125 C 39.121094 17.449219 39.785156 17.996094 40.625 18.1875 C 44.480469 19.0625 46.15625 20.765625 47.0625 22.96875 C 47.863281 24.910156 47.953125 27.347656 47.96875 29.78125 C 45.285156 29.753906 43.355469 30.09375 42.09375 30.9375 C 40.648438 31.902344 40.082031 33.375 39.75 34.6875 C 39.417969 36 39.222656 37.230469 38.625 38.25 C 38.027344 39.269531 37.078125 40.148438 34.875 40.8125 C 33.703125 41.164063 32.855469 41.96875 32.25 42.78125 C 31.644531 43.59375 31.207031 44.453125 30.6875 45.21875 C 29.648438 46.75 28.535156 47.957031 25.15625 48 C 23.039063 48.027344 21.734375 47.59375 20.8125 46.9375 C 19.890625 46.28125 19.277344 45.339844 18.75 44.21875 C 17.914063 42.449219 16.910156 41.316406 15.59375 40.5625 C 14.277344 39.808594 12.75 39.40625 10.6875 38.71875 C 10.378906 38.617188 10.234375 38.472656 10.09375 38.25 C 9.953125 38.027344 9.832031 37.6875 9.75 37.21875 C 9.582031 36.285156 9.578125 34.9375 9.34375 33.53125 C 9.109375 32.125 8.585938 30.585938 7.28125 29.40625 C 6.164063 28.394531 4.421875 27.808594 2.125 27.53125 C 2.417969 22.863281 5.027344 19.671875 9.3125 18.15625 C 11.003906 17.558594 11.894531 15.972656 12.5625 14.28125 C 13.230469 12.589844 13.730469 10.640625 14.5 8.8125 C 15.269531 6.984375 16.261719 5.296875 17.84375 4.0625 C 19.425781 2.828125 21.636719 2 25 2 Z M 19 11 C 17.894531 11 17 12.34375 17 14 C 17 15.65625 17.894531 17 19 17 C 20.105469 17 21 15.65625 21 14 C 21 12.34375 20.105469 11 19 11 Z M 27 11 C 25.894531 11 25 12.34375 25 14 C 25 15.65625 25.894531 17 27 17 C 28.105469 17 29 15.65625 29 14 C 29 12.34375 28.105469 11 27 11 Z "></path>
</svg>