<svg version="1.1" xmlns="http://www.w3.org/2000/svg" viewBox="0 0 40 22">
	<g transform="translate(0,-9)">
    <g>
      <path style="fill:#8BB7F0;" d="M3,30.5c-1.378,0-2.5-1.122-2.5-2.5V12c0-1.378,1.122-2.5,2.5-2.5h34c1.378,0,2.5,1.122,2.5,2.5v16
        c0,1.378-1.122,2.5-2.5,2.5H3z"></path>
      <g>
        <path style="fill:#567ba7;" d="M37,10c1.103,0,2,0.897,2,2v16c0,1.103-0.897,2-2,2H3c-1.103,0-2-0.897-2-2V12
          c0-1.103,0.897-2,2-2H37 M37,9H3c-1.657,0-3,1.343-3,3v16c0,1.657,1.343,3,3,3h34c1.657,0,3-1.343,3-3V12
          C40,10.343,38.657,9,37,9L37,9z"></path>
      </g>
    </g>
    <path style="fill:#FFFFFF;" d="M21.5,28h15c0.276,0,0.5-0.224,0.5-0.5v-15c0-0.276-0.224-0.5-0.5-0.5h-15
      c-0.276,0-0.5,0.224-0.5,0.5v15C21,27.776,21.224,28,21.5,28z"></path>
  </g>
</svg>
